# xmcd
#
# Track frame offsets: 
#        150
#        13330
#        23567
#        36710
#        48512
#        61270
#        74275
#        84887
#        98567
#        109817
#        126190
#        142695
#
# Disc length: 2072 seconds
#
# Revision: 2
# Processed by: cddbd v1.5.1PL0 Copyright (c) Steve Scherf et al.
# Submitted via: ExactAudioCopy v0.95a4
#
DISCID=9a08160c
DTITLE=Mighty Blue Kings - Come One, Come All
DYEAR=1997
DGENRE=Swing
TTITLE0=I Can't Stop It
TTITLE1=Baby You Rich
TTITLE2=Go Tell the Preacher
TTITLE3=Little Too Late
TTITLE4=Put Your Hand in Mine
TTITLE5=Looking for My Baby
TTITLE6=What's a Man to Do
TTITLE7=Don't Let Go
TTITLE8=Got the Sun Shinin' on Me
TTITLE9=Long Distance Lover
TTITLE10=No Blow, No Show
TTITLE11=Green Grass Grows All Around
EXTD=
EXTT0=
EXTT1=
EXTT2=
EXTT3=
EXTT4=
EXTT5=
EXTT6=
EXTT7=
EXTT8=
EXTT9=
EXTT10=
EXTT11=
PLAYORDER=
